<?xml version="1.0" encoding="UTF-8"?>
<svg version="1.1" xmlns="http://www.w3.org/2000/svg" width="444" height="444">
<path d="M0 0 C146.52 0 293.04 0 444 0 C444 146.52 444 293.04 444 444 C297.48 444 150.96 444 0 444 C0 297.48 0 150.96 0 0 Z " fill="#DE322A" transform="translate(0,0)"/>
<path d="M0 0 C1.31518555 2.06274414 1.31518555 2.06274414 2.63671875 4.78515625 C3.12720703 5.78232666 3.61769531 6.77949707 4.12304688 7.80688477 C4.89745117 9.41841431 4.89745117 9.41841431 5.6875 11.0625 C6.22568359 12.16070068 6.76386719 13.25890137 7.31835938 14.39038086 C8.39760884 16.59298685 9.47302838 18.79747397 10.54443359 21.00390625 C12.34073414 24.70135683 14.16224621 28.38551433 16 32.0625 C16.30309082 32.67085693 16.60618164 33.27921387 16.91845703 33.90600586 C19.89454194 39.84978589 22.98150296 45.73512352 26.0625 51.625 C27.08854192 53.59505195 28.11458359 55.56510403 29.140625 57.53515625 C30.85676999 60.82708602 32.59215118 64.10633984 34.359375 67.37109375 C35.01072298 68.60140038 35.66179239 69.83185456 36.3125 71.0625 C36.86550781 72.08472656 37.41851562 73.10695313 37.98828125 74.16015625 C39.23671701 77.66445276 39.08176917 79.45498154 38 83 C36.390625 85.578125 36.390625 85.578125 34.25 88.25 C33.42513762 89.30316648 32.60234901 90.35795929 31.78125 91.4140625 C31.33394531 91.98543945 30.88664062 92.55681641 30.42578125 93.14550781 C27.78588424 96.57918208 25.27533349 100.10670659 22.75 103.625 C21.63037448 105.18110914 20.51058074 106.73709726 19.390625 108.29296875 C18.82923828 109.07333496 18.26785156 109.85370117 17.68945312 110.65771484 C16.04391628 112.93911376 14.39063604 115.21465938 12.734375 117.48828125 C6.53032929 126.01627233 0.45595858 134.61316744 -5.42382812 143.36889648 C-8.57974525 148.03983803 -11.89716394 152.52925323 -15.3972168 156.94873047 C-17.70054725 159.89657243 -19.8505509 162.9386634 -22 166 C-24.77993402 164.67887751 -27.26310424 163.20735413 -29.765625 161.41796875 C-30.48282715 160.90556641 -31.2000293 160.39316406 -31.93896484 159.86523438 C-35.17138575 157.5186047 -38.38591491 155.14851437 -41.59277344 152.76708984 C-43.81221083 151.13785172 -46.06061365 149.56086 -48.3203125 147.98828125 C-58.99578621 140.28796039 -64.57141649 131.4172314 -70.51171875 119.80664062 C-72.05019749 116.90533622 -73.70182394 114.10359917 -75.40625 111.296875 C-75.96538086 110.36746094 -76.52451172 109.43804687 -77.10058594 108.48046875 C-78.16999034 106.71015809 -79.25072912 104.94662567 -80.34472656 103.19140625 C-85.54290199 94.39610741 -84.40520578 87.53983328 -82.23999023 77.79931641 C-81.37336055 73.67308932 -80.91151134 69.78742734 -80.8359375 65.56640625 C-80.35829343 51.89281266 -80.35829343 51.89281266 -76.31103516 46.92822266 C-71.69443161 42.81623726 -66.3915739 39.81771767 -61.03271484 36.78076172 C-55.55606822 33.56496229 -50.40418897 29.86643651 -45.1875 26.25 C-43.06062009 24.80430604 -40.93176622 23.36151114 -38.80078125 21.921875 C-34.73511775 19.17376585 -34.73511775 19.17376585 -30.67333984 16.41992188 C-23.7868289 11.74327359 -16.83444828 7.1847334 -9.75 2.8125 C-9.11690918 2.41289062 -8.48381836 2.01328125 -7.83154297 1.6015625 C-3.34882703 -1.11627568 -3.34882703 -1.11627568 0 0 Z " fill="#FAF9F8" transform="translate(193,143)"/>
<path d="M0 0 C6.42513218 1.44741989 12.63080023 3.15372494 18.8125 5.4375 C23.44478469 7.13936111 28.03042261 8.59543976 32.8125 9.8125 C43.04260734 12.4345023 53.03678353 15.80820921 63.07666016 19.07080078 C66.74789009 20.23772087 70.4404778 21.32260631 74.14331055 22.38452148 C76 23 76 23 77 24 C77.10585222 37.97249363 74.4720951 52.00281944 72.40844727 65.7722168 C72.05845196 68.53807928 71.95709331 71.16903023 71.90234375 73.94921875 C71.20744926 81.3725774 66.39241593 87.73428937 62.5625 93.9375 C61.76331161 95.26267076 60.96577154 96.58883706 60.16992188 97.91601562 C52.38158269 110.8570132 52.38158269 110.8570132 50.03564453 111.73608398 C48.84624268 111.98853882 48.84624268 111.98853882 47.6328125 112.24609375 C46.75391357 112.44178955 45.87501465 112.63748535 44.96948242 112.83911133 C44.03080322 113.03657959 43.09212402 113.23404785 42.125 113.4375 C36.27629553 114.71792774 30.71685786 115.96771968 25.1875 118.3125 C14.82870633 121.85942219 0.31994828 122.77838506 -9.76953125 118.109375 C-13.36879971 116.13093683 -16.71201394 113.83603941 -20.02636719 111.41552734 C-23.28246871 109.08018882 -26.7109864 107.03147787 -30.125 104.9375 C-31.43957287 104.11059911 -32.75338114 103.28248137 -34.06640625 102.453125 C-38.61718559 99.59711082 -43.23059708 96.84730338 -47.86572266 94.13061523 C-52.08265109 91.6345788 -56.04145921 88.88948264 -60 86 C-59.39972294 83.01415322 -58.50849464 80.99024954 -56.734375 78.5234375 C-56.26322266 77.86214844 -55.79207031 77.20085937 -55.30664062 76.51953125 C-54.79294922 75.81183594 -54.27925781 75.10414063 -53.75 74.375 C-53.21568359 73.62863281 -52.68136719 72.88226563 -52.13085938 72.11328125 C-50.42722586 69.73731739 -48.71462242 67.36804308 -47 65 C-45.91133811 63.4922743 -44.82279443 61.98446324 -43.734375 60.4765625 C-42.11040032 58.22801992 -40.48558746 55.98010453 -38.85839844 53.73388672 C-35.20142457 48.68186118 -31.58748616 43.60155802 -28 38.5 C-18.86626538 25.52032313 -9.59440517 12.64378975 0 0 Z " fill="#FAF8F8" transform="translate(244,232)"/>
<path d="M0 0 C0.96574951 0.63228516 1.93149902 1.26457031 2.92651367 1.91601562 C4.43411255 2.87411133 4.43411255 2.87411133 5.97216797 3.8515625 C7.97725843 5.12807074 9.97748129 6.41226168 11.97241211 7.70458984 C14.38356313 9.2506032 16.81451172 10.74084615 19.27807617 12.20117188 C19.92752197 12.59312744 20.57696777 12.98508301 21.24609375 13.38891602 C22.92484718 14.40207038 24.6071796 15.409288 26.28979492 16.41601562 C34.82260327 23.60153844 36.15388629 46.4604826 38.73901367 57.47851562 C38.93162781 58.29586182 39.12424194 59.11320801 39.32269287 59.95532227 C40.49214153 64.92557016 41.63865067 69.900296 42.75701904 74.8822937 C43.11596506 76.47019025 43.48078306 78.05677247 43.85186768 79.64187622 C45.99779746 88.84020158 47.21149241 97.02312459 45.73901367 106.47851562 C45.5454972 108.22786054 45.35754292 109.97783443 45.17651367 111.72851562 C45.03213867 112.96601563 44.88776367 114.20351562 44.73901367 115.47851562 C43.21636151 115.21810228 41.69595683 114.94454246 40.17651367 114.66601562 C38.90614258 114.43978516 38.90614258 114.43978516 37.61010742 114.20898438 C34.86119812 113.50960201 32.46558848 112.47488077 29.88330078 111.32348633 C25.16277723 109.46333239 20.19522798 108.2946173 15.30151367 106.97851562 C2.56596184 103.54134253 2.56596184 103.54134253 -3.36328125 101.21533203 C-6.93289446 99.82936874 -10.56894745 98.63416987 -14.19848633 97.41601562 C-14.94549805 97.16013672 -15.69250977 96.90425781 -16.4621582 96.640625 C-20.35370162 95.33449007 -24.09250133 94.30914437 -28.13989258 93.60742188 C-32.00918526 92.77648917 -32.00918526 92.77648917 -34.09301758 90.31054688 C-34.47844727 89.37597656 -34.86387695 88.44140625 -35.26098633 87.47851562 C-35.84235352 86.34800781 -36.4237207 85.2175 -37.02270508 84.05273438 C-37.66664502 82.75816073 -38.3084662 81.46253165 -38.94848633 80.16601562 C-39.66067201 78.7323951 -40.37291314 77.29880211 -41.08520508 75.86523438 C-41.44662598 75.1361084 -41.80804688 74.40698242 -42.18041992 73.65576172 C-43.86603768 70.25939046 -45.56363269 66.86903294 -47.26098633 63.47851562 C-49.26765928 59.47007482 -51.27144206 55.46033474 -53.26098633 51.44335938 C-56.91643885 44.07540752 -60.65459308 36.76430561 -64.55981445 29.52514648 C-66.04357035 26.77395149 -67.4919867 24.014849 -68.88598633 21.21679688 C-70.22675796 18.43835689 -70.22675796 18.43835689 -71.94848633 15.79101562 C-73.26098633 13.47851562 -73.26098633 13.47851562 -73.26098633 10.47851562 C-71.98352539 10.14980469 -70.70606445 9.82109375 -69.38989258 9.48242188 C-67.53434156 9.00227094 -65.67888123 8.52176947 -63.82348633 8.04101562 C-62.82172363 7.78239746 -61.81996094 7.5237793 -60.7878418 7.25732422 C-54.40604092 5.59738473 -48.04816551 3.8677411 -41.70239258 2.07617188 C-39.49280046 1.45694538 -37.28301465 0.83841369 -35.07321167 0.21994019 C-33.62566844 -0.18802016 -32.17928822 -0.60013202 -30.73416138 -1.01657104 C-10.81501161 -6.75369381 -10.81501161 -6.75369381 0 0 Z " fill="#FAF8F7" transform="translate(279.260986328125,125.521484375)"/>
<path d="M0 0 C0.66 0 1.32 0 2 0 C2.50789063 1.09957031 3.01578125 2.19914062 3.5390625 3.33203125 C4.23374646 4.8258133 4.92910535 6.31928158 5.625 7.8125 C5.98456787 8.58698486 6.34413574 9.36146973 6.71459961 10.15942383 C9.21727146 15.49361406 11.95165882 20.5976021 15.06640625 25.60546875 C16.31458637 28.80686797 15.80260728 30.68506472 15 34 C14.75121094 35.05960938 14.50242188 36.11921875 14.24609375 37.2109375 C13.97925781 38.25507812 13.71242187 39.29921875 13.4375 40.375 C13.03337891 41.96441406 13.03337891 41.96441406 12.62109375 43.5859375 C12.31365234 44.78089844 12.31365234 44.78089844 12 46 C13.23363281 44.948125 13.23363281 44.948125 14.4921875 43.875 C20.31946068 38.91782291 26.17200318 34.0108333 32.16796875 29.2578125 C36.00737057 26.1968825 39.81575259 23.09832704 43.625 20 C44.34921143 19.41105957 45.07342285 18.82211914 45.81958008 18.21533203 C47.54663727 16.81052882 49.27345473 15.4054323 51 14 C52.29717032 17.89151096 51.28126258 20.56759702 50.19140625 24.37109375 C49.98700424 25.0898317 49.78260223 25.80856964 49.57200623 26.54908752 C49.13396894 28.06945712 48.69063503 29.58830916 48.24243164 31.10571289 C47.56814174 33.41815197 46.93744244 35.73983619 46.30664062 38.06445312 C43.2485972 48.77804821 43.2485972 48.77804821 40.1237793 51.83618164 C38.07593994 52.8922423 36.24076852 53.48516729 34 54 C32.78699219 54.45503906 31.57398438 54.91007812 30.32421875 55.37890625 C29.12410156 55.76949219 27.92398438 56.16007812 26.6875 56.5625 C26.04087402 56.77374512 25.39424805 56.98499023 24.72802734 57.20263672 C20.10869825 58.69366429 15.46172369 60.03117913 10.7578125 61.2265625 C6.78894246 62.33964503 2.9028785 63.67626495 -1 65 C-1.89686523 65.30083496 -2.79373047 65.60166992 -3.71777344 65.91162109 C-6.62749855 66.890365 -9.53268018 67.88180088 -12.4375 68.875 C-13.41009766 69.20113281 -14.38269531 69.52726562 -15.38476562 69.86328125 C-24.41832109 72.96498299 -32.67400281 76.56995366 -40.1875 82.5625 C-40.72882568 82.98885742 -41.27015137 83.41521484 -41.82788086 83.85449219 C-44.72972532 86.14814582 -47.59612448 88.48459464 -50.4609375 90.82421875 C-57.64864005 96.67517793 -64.97670586 102.23355055 -72.5625 107.5625 C-73.83009155 108.45630371 -73.83009155 108.45630371 -75.12329102 109.36816406 C-87.22261527 117.77856674 -87.22261527 117.77856674 -95 117 C-97.97164505 116.22696836 -100.81653163 115.20885988 -103.6875 114.125 C-104.43322266 113.85558594 -105.17894531 113.58617187 -105.94726562 113.30859375 C-109.39909562 112.04610464 -112.76355777 110.75912164 -116 109 C-113.41969945 105.84981019 -110.69218198 105.01500556 -106.86328125 103.80859375 C-105.64576172 103.42123047 -104.42824219 103.03386719 -103.17382812 102.63476562 C-102.53904541 102.43794189 -101.9042627 102.24111816 -101.25024414 102.03833008 C-99.3339121 101.44413918 -97.42179845 100.83639868 -95.50976562 100.22851562 C-89.37742216 98.2941956 -83.26350163 96.4575444 -77 95 C-77 94.34 -77 93.68 -77 93 C-78.01707031 93.00966797 -78.01707031 93.00966797 -79.0546875 93.01953125 C-84.10788257 92.64859034 -87.05457287 91.94542713 -90.7109375 88.2890625 C-92.9074025 85.51387817 -94.90134799 82.60467762 -96.86425781 79.66113281 C-98.49400593 77.27746855 -100.3068709 75.05412905 -102.125 72.8125 C-105 69.24193548 -105 69.24193548 -105 67 C-88.62093231 67.54456692 -72.32528313 68.56945542 -56 70 C-57.0828125 68.9171875 -57.0828125 68.9171875 -58.1875 67.8125 C-59.115625 66.884375 -60.04375 65.95625 -61 65 C-61.87293701 64.31204346 -62.74587402 63.62408691 -63.64526367 62.9152832 C-66.9632831 58.80740658 -66.64016459 55.66933522 -66.48828125 50.54296875 C-66.48120651 49.64000565 -66.47413177 48.73704254 -66.46684265 47.80671692 C-66.43893319 44.93278912 -66.37620232 42.06083528 -66.3125 39.1875 C-66.28741262 37.23505425 -66.26460022 35.28257785 -66.24414062 33.33007812 C-66.18911789 28.55262898 -66.10286998 23.77664874 -66 19 C-61.96341007 20.55145825 -58.61615758 22.42388611 -55 24.8125 C-50.56446652 27.73785599 -46.08997478 30.56227787 -41.51953125 33.2734375 C-40.10510742 34.12071411 -40.10510742 34.12071411 -38.66210938 34.98510742 C-36.78905061 36.10409635 -34.90896761 37.21142549 -33.02148438 38.3059082 C-28.10847943 41.26238655 -24.93336756 43.31913586 -23 49 C-22.86247314 48.28529541 -22.72494629 47.57059082 -22.58325195 46.83422852 C-20.73761278 38.3626556 -17.43324365 31.45535604 -13.1875 23.9375 C-12.58357422 22.84373047 -11.97964844 21.74996094 -11.35742188 20.62304688 C-10.16361786 18.46289127 -8.96437789 16.3057294 -7.75927734 14.15185547 C-5.13709141 9.45404525 -2.5676554 4.72777461 0 0 Z " fill="#FBF6F5" transform="translate(203,63)"/>
<path d="M0 0 C-2 3 -2 3 -5 5 C-6.32 5 -7.64 5 -9 5 C-8.01 7.475 -8.01 7.475 -7 10 C-6.401875 9.814375 -5.80375 9.62875 -5.1875 9.4375 C-3 9 -3 9 0 10 C0.495 13.96 0.495 13.96 1 18 C-0.50559539 16.03617993 -1.89131683 14.21736634 -3 12 C-7.70059985 13.67746897 -11.84362272 16.1006754 -16.125 18.625 C-16.82109375 19.02589844 -17.5171875 19.42679688 -18.234375 19.83984375 C-23.42692513 22.88928682 -28.25127438 26.31723545 -33.09521484 29.89013672 C-38.04920481 33.48842057 -43.15024916 36.86304426 -48.25 40.25 C-49.28640625 40.94351563 -50.3228125 41.63703125 -51.390625 42.3515625 C-62.43545656 49.70539168 -62.43545656 49.70539168 -67 52 C-69 51 -69 51 -69.9375 49.0625 C-70.95345922 46.68028507 -70.95345922 46.68028507 -74 45 C-72.92363281 44.24976563 -71.84726563 43.49953125 -70.73828125 42.7265625 C-60.2896066 35.41609738 -50.05980825 27.9107985 -40.14453125 19.88671875 C-39.48598145 19.35498047 -38.82743164 18.82324219 -38.14892578 18.27539062 C-36.8871097 17.25387559 -35.62867655 16.22816007 -34.37451172 15.19726562 C-27.12727707 9.31626373 -19.92043866 5.26622809 -11.125 2.125 C-10.27164063 1.8053125 -9.41828125 1.485625 -8.5390625 1.15625 C-2.25867102 -1.12933551 -2.25867102 -1.12933551 0 0 Z M-69 43 C-68 45 -68 45 -68 45 Z " fill="#D6332D" transform="translate(195,131)"/>
<path d="M0 0 C0.66 0.33 1.32 0.66 2 1 C-3.14285714 7.57142857 -3.14285714 7.57142857 -7 9 C-6.1654738 11.50357861 -5.20628008 13.66785852 -4 16 C-9.2734375 19.22265625 -9.2734375 19.22265625 -11 20 C-13 19 -13 19 -13.9375 17.0625 C-14.95345922 14.68028507 -14.95345922 14.68028507 -18 13 C-17.49025635 12.64172119 -16.9805127 12.28344238 -16.45532227 11.91430664 C-14.15699741 10.29805514 -11.85973648 8.68029803 -9.5625 7.0625 C-8.35883789 6.21655273 -8.35883789 6.21655273 -7.13085938 5.35351562 C-6.36708984 4.81533203 -5.60332031 4.27714844 -4.81640625 3.72265625 C-3.75595093 2.97640991 -3.75595093 2.97640991 -2.67407227 2.21508789 C-1.05303063 1.10532955 -1.05303063 1.10532955 0 0 Z M-13 11 C-12 13 -12 13 -12 13 Z " fill="#D83C35" transform="translate(139,163)"/>
<path d="M0 0 C2.94956528 1.36944102 5.52468811 2.87830409 8 5 C8 5.66 8 6.32 8 7 C-1.68791291 7.13411454 -11.21471743 6.75646657 -20.875 6 C-22.14730469 5.90460938 -23.41960937 5.80921875 -24.73046875 5.7109375 C-27.82069542 5.47858963 -30.91048215 5.24155931 -34 5 C-34 4.67 -34 4.34 -34 4 C-31.10437118 3.82876957 -28.20864098 3.66218608 -25.3125 3.5 C-24.45213135 3.45085449 -23.5917627 3.40170898 -22.70532227 3.35107422 C-16.56440996 3.02253627 -10.5173404 2.99160564 -4.37109375 3.2578125 C-3.19740234 3.13019531 -3.19740234 3.13019531 -2 3 C-1.34 2.01 -0.68 1.02 0 0 Z " fill="#CC3A37" transform="translate(139,126)"/>
<path d="M0 0 C2 1 2 1 3.125 4 C4.27521462 8.32229088 4.18124209 12.55956873 4 17 C4.66 17 5.32 17 6 17 C7.51233701 23.46794133 8.21432579 29.35590042 8 36 C8.66 36 9.32 36 10 36 C10.08107646 38.75059381 10.14052813 41.49879021 10.1875 44.25 C10.22520508 45.41595703 10.22520508 45.41595703 10.26367188 46.60546875 C10.27817383 47.73662109 10.27817383 47.73662109 10.29296875 48.890625 C10.31653442 49.92751465 10.31653442 49.92751465 10.34057617 50.98535156 C9.8984897 53.60047524 8.69589133 55.00483373 7 57 C7.17680298 55.60249512 7.17680298 55.60249512 7.35717773 54.17675781 C8.48105749 42.69385334 6.76446257 32.8971201 4.0625 21.75 C3.47985044 19.26065086 2.90345771 16.76996169 2.33042908 14.27838135 C1.97568985 12.74530432 1.61434986 11.21373464 1.24537659 9.684021 C0.44784769 6.32185997 0 3.48128886 0 0 Z " fill="#C83D38" transform="translate(317,179)"/>
<path d="M0 0 C0.66 0 1.32 0 2 0 C2 0.99 2 1.98 2 3 C2.66 3 3.32 3 4 3 C4.80967438 5.91482778 5.21845993 7.46113217 4.0625 10.3125 C3.5365625 11.1478125 3.5365625 11.1478125 3 12 C5.97 12.495 5.97 12.495 9 13 C5.29909479 16.9252025 1.45040344 19.94580156 -3 23 C-1.29295871 13.64759294 -1.29295871 13.64759294 0.1875 10.375 C1.43095539 6.74028424 0.63742147 3.76078665 0 0 Z " fill="#D02F29" transform="translate(217,87)"/>
<path d="M0 0 C0.66 0 1.32 0 2 0 C2 3.96 2 7.92 2 12 C-1.96 12 -5.92 12 -10 12 C-9.2575 11.443125 -8.515 10.88625 -7.75 10.3125 C-4.12772023 7.26649201 -1.50757378 4.52272135 0 0 Z " fill="#FDEBEA" transform="translate(442,432)"/>
<path d="M0 0 C3.13548936 5.84793651 1.91349113 10.81661999 0.578125 17.0546875 C-0.52285308 22.6637245 -1.23299732 28.33723556 -2 34 C-2.66 34 -3.32 34 -4 34 C-2.02501099 10.21122564 -2.02501099 10.21122564 0 0 Z " fill="#FDD6D3" transform="translate(115,192)"/>
<path d="M0 0 C7.37303523 3.47060444 14.2004184 7.51434446 21 12 C20.34 12.66 19.68 13.32 19 14 C18.4225 13.525625 17.845 13.05125 17.25 12.5625 C15.15317821 10.90581133 15.15317821 10.90581133 12.9375 10.5 C11 10 11 10 9.5 8.4375 C7.86494057 6.53872976 7.86494057 6.53872976 4 7 C3.67 6.01 3.34 5.02 3 4 C2.01 3.34 1.02 2.68 0 2 C0 1.34 0 0.68 0 0 Z " fill="#CC3732" transform="translate(208,333)"/>
<path d="M0 0 C1.258125 -0.020625 2.51625 -0.04125 3.8125 -0.0625 C4.52019531 -0.07410156 5.22789063 -0.08570313 5.95703125 -0.09765625 C8 0 8 0 11 1 C11 1.66 11 2.32 11 3 C7.09971775 5.60018816 3.52565431 5.15085514 -1 5 C-0.67 3.35 -0.34 1.7 0 0 Z " fill="#D23431" transform="translate(115,155)"/>
<path d="M0 0 C1.3303125 0.37125 1.3303125 0.37125 2.6875 0.75 C3.6775 1.018125 4.6675 1.28625 5.6875 1.5625 C8.96408654 2.85948217 11.12923234 4.33791906 13.6875 6.75 C14.0175 7.74 14.3475 8.73 14.6875 9.75 C11.38441546 8.61456469 8.68998031 7.12448091 5.8125 5.1875 C2.02761191 2.74099439 -0.84109797 2.02946263 -5.3125 1.75 C-2.3125 -0.25 -2.3125 -0.25 0 0 Z " fill="#D04F4A" transform="translate(269.3125,119.25)"/>
<path d="M0 0 C0.33 1.32 0.66 2.64 1 4 C0.34 4 -0.32 4 -1 4 C-1.33 4.99 -1.66 5.98 -2 7 C-7.74357537 8.94871307 -12.97314783 9.25111884 -19 9 C-13.4581339 6.12016565 -8.2800816 4.69365456 -2 5 C-1.34 3.35 -0.68 1.7 0 0 Z " fill="#D14D49" transform="translate(298,338)"/>
<path d="M0 0 C3.59391114 1.33488128 6.75490696 2.96022723 10 5 C10.66 4.34 11.32 3.68 12 3 C13.4606285 5.64738916 14 6.89448334 14 10 C9.33539866 8.39654329 4.88058403 6.05550658 1 3 C0.67 2.01 0.34 1.02 0 0 Z " fill="#D03D37" transform="translate(147,86)"/>
<path d="M0 0 C0.33 0 0.66 0 1 0 C1.08152344 2.54232342 1.14073716 5.08199202 1.1875 7.625 C1.22520508 8.69427734 1.22520508 8.69427734 1.26367188 9.78515625 C1.33024446 14.62276416 0.55559453 17.74738338 -2 22 C-2.66 22 -3.32 22 -4 22 C-3.53980469 21.03513672 -3.53980469 21.03513672 -3.0703125 20.05078125 C-1.69189197 16.12177968 -1.29693561 12.31347689 -0.875 8.1875 C-0.78863281 7.39923828 -0.70226562 6.61097656 -0.61328125 5.79882812 C-0.40248936 3.86656916 -0.20037104 1.93336737 0 0 Z " fill="#C9403A" transform="translate(316,294)"/>
<path d="M0 0 C2.31 0 4.62 0 7 0 C4.02187403 1.98541731 1.50156031 2.98825276 -1.875 4.125 C-2.90367188 4.47820312 -3.93234375 4.83140625 -4.9921875 5.1953125 C-7.82719431 5.95376887 -10.08640824 6.16126892 -13 6 C-12.34 5.67 -11.68 5.34 -11 5 C-11 4.34 -11 3.68 -11 3 C-5.555 2.505 -5.555 2.505 0 2 C0 1.34 0 0.68 0 0 Z " fill="#CD3E37" transform="translate(101,163)"/>
<path d="M0 0 C0.66 0.33 1.32 0.66 2 1 C-3.4612069 8.02155172 -3.4612069 8.02155172 -8 10 C-9.32 9.67 -10.64 9.34 -12 9 C-8.04 6.03 -4.08 3.06 0 0 Z " fill="#D04742" transform="translate(139,163)"/>
<path d="M0 0 C0 0.33 0 0.66 0 1 C-12.87 0.505 -12.87 0.505 -26 0 C-26 -0.33 -26 -0.66 -26 -1 C-8.10257848 -2.64573991 -8.10257848 -2.64573991 0 0 Z " fill="#D0514B" transform="translate(131,131)"/>
<path d="M0 0 C5.94 1.485 5.94 1.485 12 3 C9 4 9 4 6 3 C6 3.99 6 4.98 6 6 C5.01 5.67 4.02 5.34 3 5 C3 4.34 3 3.68 3 3 C-0.24565858 2.65944803 -0.24565858 2.65944803 -2.6875 5.5 C-3.450625 6.325 -4.21375 7.15 -5 8 C-3.57568513 4.93224489 -2.09219926 2.78959901 0 0 Z " fill="#FBC6C4" transform="translate(244,232)"/>
<path d="M0 0 C3.915141 3.35583515 6.0795774 7.28066362 8 12 C8 12.66 8 13.32 8 14 C6.68 14 5.36 14 4 14 C3.5196682 12.41701974 3.04078388 10.83360022 2.5625 9.25 C2.29566406 8.36828125 2.02882812 7.4865625 1.75390625 6.578125 C1.11531506 4.39434165 0.53224167 2.21164502 0 0 Z " fill="#CA3933" transform="translate(224,175)"/>
<path d="M0 0 C-2 3 -2 3 -5 5 C-5.33 4.67 -5.66 4.34 -6 4 C-7.2065625 4.2784375 -7.2065625 4.2784375 -8.4375 4.5625 C-9.283125 4.706875 -10.12875 4.85125 -11 5 C-11.66 4.34 -12.32 3.68 -13 3 C-11.21189234 2.30329584 -9.41937948 1.61788811 -7.625 0.9375 C-6.62726563 0.55464844 -5.62953125 0.17179688 -4.6015625 -0.22265625 C-2 -1 -2 -1 0 0 Z " fill="#D24944" transform="translate(195,131)"/>
<path d="M0 0 C-0.33 0.99 -0.66 1.98 -1 3 C-3.328125 3.94921875 -3.328125 3.94921875 -6.25 4.6875 C-7.68085938 5.06455078 -7.68085938 5.06455078 -9.140625 5.44921875 C-11.84604951 5.9703456 -14.25434317 6.10521678 -17 6 C-13.9666221 3.97774806 -11.38655511 3.00652476 -7.9375 1.875 C-6.87402344 1.52179688 -5.81054688 1.16859375 -4.71484375 0.8046875 C-2 0 -2 0 0 0 Z " fill="#CA3A36" transform="translate(239,116)"/>
<path d="M0 0 C2.11608114 3.43863185 2.39249607 5.99654004 2 10 C1.15097431 12.43910849 0.12120459 14.66415709 -1 17 C-1.33 17 -1.66 17 -2 17 C-1.85786703 15.10388566 -1.71113093 13.20811606 -1.5625 11.3125 C-1.48128906 10.25675781 -1.40007812 9.20101562 -1.31640625 8.11328125 C-1.03548319 5.34913703 -0.59843148 2.71054259 0 0 Z " fill="#F3AFAD" transform="translate(115,192)"/>
<path d="M0 0 C-1.33926124 4.01778372 -3.49134469 4.78023848 -7 7 C-7.66 7.66 -8.32 8.32 -9 9 C-9.99 8.34 -10.98 7.68 -12 7 C-10.3790787 5.82767315 -8.75313167 4.6622923 -7.125 3.5 C-6.22007812 2.8503125 -5.31515625 2.200625 -4.3828125 1.53125 C-2 0 -2 0 0 0 Z " fill="#FCDBDA" transform="translate(168,157)"/>
<path d="M0 0 C0.33 2.64 0.66 5.28 1 8 C-0.50559539 6.03617993 -1.89131683 4.21736634 -3 2 C-4.98 2.66 -6.96 3.32 -9 4 C-9 2.68 -9 1.36 -9 0 C-5.67465243 -1.10844919 -3.37817425 -0.84454356 0 0 Z " fill="#D0473D" transform="translate(195,141)"/>
<path d="M0 0 C0.66 0.33 1.32 0.66 2 1 C0.6875 3 0.6875 3 -1 5 C-1.99 5 -2.98 5 -4 5 C-4 5.66 -4 6.32 -4 7 C-6.31 7.66 -8.62 8.32 -11 9 C-7.67149253 5.40521193 -4.01028669 2.77635232 0 0 Z " fill="#FBD4D3" transform="translate(129,182)"/>
<path d="M0 0 C0.66 0 1.32 0 2 0 C2.36253776 5.43806647 2.36253776 5.43806647 0.75 7.9375 C-1 9 -1 9 -3.1875 8.6875 C-3.785625 8.460625 -4.38375 8.23375 -5 8 C-4.360625 7.236875 -3.72125 6.47375 -3.0625 5.6875 C-0.85767219 3.11753287 -0.85767219 3.11753287 0 0 Z " fill="#F9C3BF" transform="translate(442,432)"/>
<path d="M0 0 C3 1 3 1 4.203125 2.70703125 C4.54859375 3.40183594 4.8940625 4.09664062 5.25 4.8125 C5.60578125 5.49957031 5.9615625 6.18664062 6.328125 6.89453125 C7.11193544 9.35077442 6.84119973 10.60042386 6 13 C4.99759911 11.02204824 3.99813957 9.04260558 3 7.0625 C2.1646875 5.40927734 2.1646875 5.40927734 1.3125 3.72265625 C0 1 0 1 0 0 Z " fill="#FDDDD9" transform="translate(238,200)"/>
<path d="M0 0 C0.99 0.33 1.98 0.66 3 1 C3 1.66 3 2.32 3 3 C3.66 3 4.32 3 5 3 C6.48320272 6.83887763 7.22419163 9.06204091 6 13 C4.99759911 11.02204824 3.99813957 9.04260558 3 7.0625 C2.1646875 5.40927734 2.1646875 5.40927734 1.3125 3.72265625 C0 1 0 1 0 0 Z " fill="#FDDDD9" transform="translate(222,168)"/>
<path d="M0 0 C-1.2065625 0.4021875 -1.2065625 0.4021875 -2.4375 0.8125 C-3.283125 1.204375 -4.12875 1.59625 -5 2 C-5.33 2.99 -5.66 3.98 -6 5 C-5.34 5.33 -4.68 5.66 -4 6 C-4.66 6.66 -5.32 7.32 -6 8 C-9 3.375 -9 3.375 -9 0 C-5.62182575 -0.84454356 -3.32534757 -1.10844919 0 0 Z " fill="#F8C9C5" transform="translate(215,136)"/>
<path d="M0 0 C0.66 0.33 1.32 0.66 2 1 C0.515 2.485 0.515 2.485 -1 4 C0.32 4.66 1.64 5.32 3 6 C2.01 6.495 2.01 6.495 1 7 C-1.35981813 6.06421005 -3.69631264 5.06652192 -6 4 C-3.94766315 1.7522025 -2.99332739 0.9977758 0 0 Z " fill="#FBCCCA" transform="translate(93,168)"/>
<path d="M0 0 C0.66 0 1.32 0 2 0 C2.36428777 1.9147688 2.71605306 3.83192293 3.0625 5.75 C3.25972656 6.81734375 3.45695312 7.8846875 3.66015625 8.984375 C3.97156937 11.74771905 3.8991416 13.40946617 3 16 C2.49411853 14.08487728 1.99551609 12.16783078 1.5 10.25 C1.2215625 9.18265625 0.943125 8.1153125 0.65625 7.015625 C0 4 0 4 0 0 Z " fill="#CB4139" transform="translate(310,150)"/>
<path d="M0 0 C0.6875 2.0625 0.6875 2.0625 1 4 C0.01 3.67 -0.98 3.34 -2 3 C-2 2.34 -2 1.68 -2 1 C-3.11375 1.680625 -4.2275 2.36125 -5.375 3.0625 C-7.2734375 4.22265625 -7.2734375 4.22265625 -9 5 C-9.66 4.67 -10.32 4.34 -11 4 C-9.73760288 3.13341385 -8.46472499 2.28207941 -7.1875 1.4375 C-6.47980469 0.96183594 -5.77210938 0.48617187 -5.04296875 -0.00390625 C-3 -1 -3 -1 0 0 Z " fill="#FCD5D1" transform="translate(193,143)"/>
<path d="M0 0 C0.98120464 3.05263664 0.98120464 4.94736336 0 8 C0.66 8 1.32 8 2 8 C2 8.66 2 9.32 2 10 C-0.5 11.625 -0.5 11.625 -3 13 C-2.68991116 11.39536551 -2.37683713 9.79130769 -2.0625 8.1875 C-1.88847656 7.29417969 -1.71445313 6.40085937 -1.53515625 5.48046875 C-1 3 -1 3 0 0 Z " fill="#C64944" transform="translate(217,97)"/>
<path d="M0 0 C0.66 0 1.32 0 2 0 C3.06775224 1.96466413 4.06553465 3.96855359 5 6 C4.67 6.66 4.34 7.32 4 8 C3.34 7.67 2.68 7.34 2 7 C2 6.01 2 5.02 2 4 C1.34 4 0.68 4 0 4 C0 4.66 0 5.32 0 6 C-0.66 6 -1.32 6 -2 6 C-1.34 4.02 -0.68 2.04 0 0 Z " fill="#FCCECB" transform="translate(203,63)"/>
<path d="M0 0 C0.66 0.33 1.32 0.66 2 1 C-0.31 4.3 -2.62 7.6 -5 11 C-5.33 10.01 -5.66 9.02 -6 8 C-5.34 7.34 -4.68 6.68 -4 6 C-3.3574765 3.93125966 -3.3574765 3.93125966 -3 2 C-2.01 2 -1.02 2 0 2 C0 1.34 0 0.68 0 0 Z " fill="#C6362F" transform="translate(213,272)"/>
<path d="M0 0 C-0.33 0.99 -0.66 1.98 -1 3 C-4.0625 4.1875 -4.0625 4.1875 -7 5 C-7.66 4.34 -8.32 3.68 -9 3 C-5.55930376 0.70620251 -4.27709699 0 0 0 Z " fill="#CB332D" transform="translate(123,177)"/>
<path d="M0 0 C0.75 1.5625 0.75 1.5625 1 4 C-0.13084437 6.50286409 -1.52139516 8.67007722 -3 11 C-3.66 11 -4.32 11 -5 11 C-3.77472971 6.94718288 -2.30119506 3.55639236 0 0 Z " fill="#FAC8C5" transform="translate(198,73)"/>
<path d="M0 0 C1.32 0 2.64 0 4 0 C4.625 2.875 4.625 2.875 5 6 C4.34 6.66 3.68 7.32 3 8 C0 2.25 0 2.25 0 0 Z " fill="#CF413C" transform="translate(228,212)"/>
<path d="M0 0 C0.66 0 1.32 0 2 0 C2.96070434 2.88211302 3.10581883 4.69850044 3.0625 7.6875 C3.05347656 8.49574219 3.04445313 9.30398437 3.03515625 10.13671875 C3.02355469 10.75160156 3.01195312 11.36648437 3 12 C0.7655402 7.96707255 0.45503257 4.55032566 0 0 Z " fill="#CB403B" transform="translate(314,167)"/>
<path d="M0 0 C1.46366342 0.39753821 2.9208935 0.81881384 4.375 1.25 C5.18710937 1.48203125 5.99921875 1.7140625 6.8359375 1.953125 C9.45785454 3.2214892 9.99382318 4.32423308 11 7 C6.89188572 5.55007731 3.53144334 3.54592427 0 1 C0 0.67 0 0.34 0 0 Z " fill="#CE4A45" transform="translate(294,135)"/>
<path d="M0 0 C0.90574136 3.62296546 1.24080386 6.30767418 1 10 C0.34 10.66 -0.32 11.32 -1 12 C-1.66 12 -2.32 12 -3 12 C-2.01 8.04 -1.02 4.08 0 0 Z " fill="#CF4A46" transform="translate(249,97)"/>
<path d="M0 0 C0.66 0 1.32 0 2 0 C2 0.99 2 1.98 2 3 C2.66 3 3.32 3 4 3 C4.33 4.65 4.66 6.3 5 8 C3.02 8.99 3.02 8.99 1 10 C1.020625 9.0925 1.04125 8.185 1.0625 7.25 C1.0110245 4.57327412 0.7784983 2.53011948 0 0 Z " fill="#CC3B36" transform="translate(217,87)"/>
<path d="M0 0 C0.66 1.32 1.32 2.64 2 4 C0.6875 5.5 0.6875 5.5 -1 7 C-1.99 7 -2.98 7 -4 7 C-2.79618552 4.50638429 -1.54571278 2.31856917 0 0 Z " fill="#CE453F" transform="translate(206,259)"/>
<path d="M0 0 C0.66 0 1.32 0 2 0 C2.67154933 1.28913487 3.33708859 2.58140204 4 3.875 C4.37125 4.59429687 4.7425 5.31359375 5.125 6.0546875 C6 8 6 8 6 10 C5.34 10 4.68 10 4 10 C0 3.375 0 3.375 0 0 Z " fill="#C83935" transform="translate(215,186)"/>
<path d="M0 0 C1.32 0 2.64 0 4 0 C4 0.66 4 1.32 4 2 C5.65 2.33 7.3 2.66 9 3 C9.33 3.99 9.66 4.98 10 6 C6.00499382 4.6302836 3.19990508 2.74277578 0 0 Z " fill="#D04A45" transform="translate(284,129)"/>
<path d="M0 0 C0.66 0 1.32 0 2 0 C0.7508258 3.45925163 -0.67527795 6.14693203 -3 9 C-3.33 8.01 -3.66 7.02 -4 6 C-3.34 6 -2.68 6 -2 6 C-1.855625 5.195625 -1.71125 4.39125 -1.5625 3.5625 C-1 1 -1 1 0 0 Z " fill="#FDE0DF" transform="translate(303,326)"/>
<path d="M0 0 C0.66 0 1.32 0 2 0 C1.25 2.4375 1.25 2.4375 0 5 C-2.125 5.8125 -2.125 5.8125 -4 6 C-1.125 1.125 -1.125 1.125 0 0 Z " fill="#CB3632" transform="translate(231,225)"/>
<path d="M0 0 C1.67542976 0.28604898 3.34385343 0.61781233 5 1 C5 1.66 5 2.32 5 3 C3.35 3.66 1.7 4.32 0 5 C-0.5625 3.0625 -0.5625 3.0625 -1 1 C-0.67 0.67 -0.34 0.34 0 0 Z " fill="#DE2826" transform="translate(132,171)"/>
<path d="M0 0 C2.875 -0.125 2.875 -0.125 6 0 C6.66 0.66 7.32 1.32 8 2 C5.03 1.505 5.03 1.505 2 1 C2 1.99 2 2.98 2 4 C1.01 3.67 0.02 3.34 -1 3 C-0.67 2.01 -0.34 1.02 0 0 Z " fill="#F8DBD5" transform="translate(248,234)"/>
<path d="M0 0 C4.95 0.99 4.95 0.99 10 2 C6 4 6 4 2.75 3.125 C1.8425 2.75375 0.935 2.3825 0 2 C0 1.34 0 0.68 0 0 Z " fill="#CC433E" transform="translate(271,225)"/>
<path d="M0 0 C3 4 3 4 2.6875 7.25 C2.460625 8.1575 2.23375 9.065 2 10 C1.67 10 1.34 10 1 10 C0.67 6.7 0.34 3.4 0 0 Z " fill="#FCDBD8" transform="translate(229,216)"/>
<path d="M0 0 C3 1 3 1 5 4 C5.125 6.6875 5.125 6.6875 5 9 C2.67527795 6.14693203 1.2491742 3.45925163 0 0 Z " fill="#CA4038" transform="translate(222,201)"/>
<path d="M0 0 C1.98 0 3.96 0 6 0 C6 0.66 6 1.32 6 2 C3.36 2.33 0.72 2.66 -2 3 C-1.34 2.67 -0.68 2.34 0 2 C0 1.34 0 0.68 0 0 Z " fill="#D13631" transform="translate(90,166)"/>
<path d="M0 0 C-0.33 0.99 -0.66 1.98 -1 3 C-4.3 3 -7.6 3 -11 3 C-6.9903514 0.32690093 -4.82843714 0 0 0 Z " fill="#FACFCB" transform="translate(259,123)"/>
<path d="M0 0 C2.64465038 3.1254959 3.84414715 6.08788267 5 10 C2 9 2 9 0.8125 6.6875 C0 4 0 4 0 0 Z " fill="#F9D4D2" transform="translate(211,77)"/>
</svg>
